# xmcd CD database file
#
# Track frame offsets:
#	150
#	17475
#	33112
#	49775
#	67687
#	89055
#	110167
#	127937
#	146437
#	165712
#	185625
#	206250
#
# Disc length: 3026 seconds
#
# Revision: 0
# Processed by: cddbd v1.5.1PL0 Copyright (c) Steve Scherf et al.
# Submitted via: CDex 1.51
#
DISCID=9c0bd00c
DTITLE=加藤登紀子 - TOKIKO KATOH
DYEAR=1900
DGENRE=Blues
TTITLE0=北の便りを
TTITLE1=ランニング・オン
TTITLE2=ガラスの道
TTITLE3=陽ざしの中で
TTITLE4=悲しみよ河になれ
TTITLE5=時には昔の話を
TTITLE6=寝た子を起こす子守唄
TTITLE7=七色の罪
TTITLE8=最後のダンスパーティ
TTITLE9=Out of Border
TTITLE10=むくげの花
TTITLE11=冬の蛍
EXTD=
EXTT0=
EXTT1=
EXTT2=
EXTT3=
EXTT4=
EXTT5=
EXTT6=
EXTT7=
EXTT8=
EXTT9=
EXTT10=
EXTT11=
PLAYORDER=
